<?xml version="1.0" encoding="UTF-8" standalone="no"?>
<!-- Created with Inkscape (http://www.inkscape.org/) -->

<svg
   xmlns:dc="http://purl.org/dc/elements/1.1/"
   xmlns:cc="http://creativecommons.org/ns#"
   xmlns:rdf="http://www.w3.org/1999/02/22-rdf-syntax-ns#"
   xmlns:svg="http://www.w3.org/2000/svg"
   xmlns="http://www.w3.org/2000/svg"
   xmlns:sodipodi="http://sodipodi.sourceforge.net/DTD/sodipodi-0.dtd"
   xmlns:inkscape="http://www.inkscape.org/namespaces/inkscape"
   width="210mm"
   height="297mm"
   viewBox="0 0 744.09448819 1052.3622047"
   id="svg4250"
   version="1.1"
   inkscape:version="0.91 r13725"
   sodipodi:docname="Galka_3_white_circle.svg">
  <defs
     id="defs4252" />
  <sodipodi:namedview
     id="base"
     pagecolor="#ffffff"
     bordercolor="#666666"
     borderopacity="1.0"
     inkscape:pageopacity="0.0"
     inkscape:pageshadow="2"
     inkscape:zoom="0.35"
     inkscape:cx="266.61547"
     inkscape:cy="539.22538"
     inkscape:document-units="px"
     inkscape:current-layer="layer1"
     showgrid="false"
     inkscape:window-width="1920"
     inkscape:window-height="1058"
     inkscape:window-x="1912"
     inkscape:window-y="-8"
     inkscape:window-maximized="1" />
  <metadata
     id="metadata4255">
    <rdf:RDF>
      <cc:Work
         rdf:about="">
        <dc:format>image/svg+xml</dc:format>
        <dc:type
           rdf:resource="http://purl.org/dc/dcmitype/StillImage" />
        <dc:title></dc:title>
      </cc:Work>
    </rdf:RDF>
  </metadata>
  <g
     inkscape:groupmode="layer"
     id="layer5"
     inkscape:label="icon"
     style="display:inline" />
  <g
     inkscape:groupmode="layer"
     id="layer1"
     inkscape:label="galka"
     style="display:inline">
    <g
       id="g4733"
       inkscape:export-xdpi="9.0565767"
       inkscape:export-ydpi="9.0565767">
      <circle
         r="318.00095"
         cy="477.49048"
         cx="380.052"
         id="path5030"
         style="display:inline;color:#000000;clip-rule:nonzero;overflow:visible;visibility:visible;opacity:1;isolation:auto;mix-blend-mode:normal;color-interpolation:sRGB;color-interpolation-filters:linearRGB;solid-color:#000000;solid-opacity:1;fill:#ffffff;fill-opacity:1;fill-rule:evenodd;stroke:none;stroke-width:6;stroke-linecap:butt;stroke-linejoin:round;stroke-miterlimit:4;stroke-dasharray:none;stroke-dashoffset:0;stroke-opacity:1;color-rendering:auto;image-rendering:auto;shape-rendering:auto;text-rendering:auto;enable-background:accumulate" />
      <g
         style="display:inline;opacity:0.78899997"
         inkscape:export-ydpi="5.0848069"
         inkscape:export-xdpi="5.0848069"
         transform="matrix(8.2944941,0,0,8.2944941,-75.303164,78.004887)"
         id="g4226">
        <circle
           r="29.971638"
           cy="48.233395"
           cx="54.978333"
           id="circle4175"
           style="color:#000000;clip-rule:nonzero;display:inline;overflow:visible;visibility:visible;opacity:1;isolation:auto;mix-blend-mode:normal;color-interpolation:sRGB;color-interpolation-filters:linearRGB;solid-color:#000000;solid-opacity:1;fill:#45a9ff;fill-opacity:1;fill-rule:evenodd;stroke:#45a9ff;stroke-width:5.4142313;stroke-linecap:butt;stroke-linejoin:round;stroke-miterlimit:4;stroke-dasharray:none;stroke-dashoffset:0;stroke-opacity:1;color-rendering:auto;image-rendering:auto;shape-rendering:auto;text-rendering:auto;enable-background:accumulate" />
        <path
           inkscape:connector-curvature="0"
           style="opacity:1;fill:#ffffff;fill-opacity:1;fill-rule:evenodd;stroke:none;stroke-width:0.62940842px;stroke-linecap:butt;stroke-linejoin:miter;stroke-opacity:1"
           d="m 70.449219,35.060547 c -0.582436,0.03298 -1.152003,0.287718 -1.572266,0.759765 L 50.673828,56.267578 42.074219,47.470703 c -0.897103,-0.917489 -2.370066,-0.901566 -3.275391,0.0078 -0.905325,0.909378 -0.891243,2.357901 0.0059,3.27539 L 49.125,61.308594 c 0.01094,0.01119 0.02404,0.01838 0.03516,0.0293 0.0093,0.0086 0.01589,0.01887 0.02539,0.02734 l 0.05078,0.04687 c 0.03492,0.03116 0.07511,0.05144 0.111328,0.08008 0.07035,0.05564 0.139872,0.110204 0.214844,0.15625 0.05421,0.03352 0.109914,0.06131 0.166016,0.08984 0.07666,0.03857 0.152695,0.07617 0.232422,0.105469 0.07263,0.02718 0.146325,0.04694 0.220703,0.06641 0.06236,0.01594 0.124195,0.03238 0.1875,0.04297 0.107615,0.01864 0.215565,0.02624 0.324218,0.0293 0.0294,7.07e-4 0.05848,0.0043 0.08789,0.0039 0.130193,-0.0013 0.2585,-0.01552 0.386719,-0.03906 0.01567,-0.0029 0.03125,-0.0046 0.04687,-0.0078 0.116632,-0.02394 0.229535,-0.05927 0.341797,-0.101562 0.03537,-0.01314 0.07064,-0.02415 0.105468,-0.03906 0.0843,-0.03665 0.163995,-0.0836 0.244141,-0.130859 0.05806,-0.03355 0.11627,-0.06459 0.171875,-0.103516 0.04441,-0.03182 0.08447,-0.07011 0.126953,-0.105469 0.06497,-0.05261 0.135039,-0.09766 0.195313,-0.158203 0.02237,-0.02247 0.03735,-0.04915 0.05859,-0.07227 l 0.002,-0.002 19.871093,-22.320312 c 0.840527,-0.944093 0.759503,-2.38101 -0.183593,-3.222656 l -0.05078,-0.04492 c -0.471548,-0.420823 -1.066001,-0.6111 -1.648437,-0.578125 z"
           id="rect4147" />
      </g>
    </g>
  </g>
</svg>
