<?xml version="1.0" encoding="UTF-8" standalone="no"?>
<!-- Created with Inkscape (http://www.inkscape.org/) -->

<svg
   xmlns:dc="http://purl.org/dc/elements/1.1/"
   xmlns:cc="http://creativecommons.org/ns#"
   xmlns:rdf="http://www.w3.org/1999/02/22-rdf-syntax-ns#"
   xmlns:svg="http://www.w3.org/2000/svg"
   xmlns="http://www.w3.org/2000/svg"
   xmlns:sodipodi="http://sodipodi.sourceforge.net/DTD/sodipodi-0.dtd"
   xmlns:inkscape="http://www.inkscape.org/namespaces/inkscape"
   width="210mm"
   height="297mm"
   viewBox="0 0 744.09448819 1052.3622047"
   id="svg4250"
   version="1.1"
   inkscape:version="0.91 r13725"
   sodipodi:docname="teamer_5.svg">
  <defs
     id="defs4252" />
  <sodipodi:namedview
     id="base"
     pagecolor="#ffffff"
     bordercolor="#666666"
     borderopacity="1.0"
     inkscape:pageopacity="0.0"
     inkscape:pageshadow="2"
     inkscape:zoom="0.35"
     inkscape:cx="700.73228"
     inkscape:cy="525.70593"
     inkscape:document-units="px"
     inkscape:current-layer="layer5"
     showgrid="false"
     inkscape:window-width="1920"
     inkscape:window-height="1058"
     inkscape:window-x="1912"
     inkscape:window-y="-8"
     inkscape:window-maximized="1" />
  <metadata
     id="metadata4255">
    <rdf:RDF>
      <cc:Work
         rdf:about="">
        <dc:format>image/svg+xml</dc:format>
        <dc:type
           rdf:resource="http://purl.org/dc/dcmitype/StillImage" />
        <dc:title></dc:title>
      </cc:Work>
    </rdf:RDF>
  </metadata>
  <g
     inkscape:groupmode="layer"
     id="layer7"
     inkscape:label="icon 3" />
  <g
     inkscape:groupmode="layer"
     id="layer6"
     inkscape:label="icon 2" />
  <g
     inkscape:groupmode="layer"
     id="layer5"
     inkscape:label="icon">
    <g
       id="g5040"
       transform="matrix(0.83792552,0,0,0.83792552,63.102833,86.424369)"
       style="opacity:1"
       inkscape:export-xdpi="9.0565767"
       inkscape:export-ydpi="9.0565767">
      <circle
         r="379.5098"
         cy="466.70749"
         cx="378.25458"
         id="path5030"
         style="color:#000000;clip-rule:nonzero;display:inline;overflow:visible;visibility:visible;opacity:1;isolation:auto;mix-blend-mode:normal;color-interpolation:sRGB;color-interpolation-filters:linearRGB;solid-color:#000000;solid-opacity:1;fill:#ffffff;fill-opacity:1;fill-rule:evenodd;stroke:none;stroke-width:6;stroke-linecap:butt;stroke-linejoin:round;stroke-miterlimit:4;stroke-dasharray:none;stroke-dashoffset:0;stroke-opacity:1;color-rendering:auto;image-rendering:auto;shape-rendering:auto;text-rendering:auto;enable-background:accumulate" />
      <circle
         style="color:#000000;clip-rule:nonzero;display:inline;overflow:visible;visibility:visible;opacity:1;isolation:auto;mix-blend-mode:normal;color-interpolation:sRGB;color-interpolation-filters:linearRGB;solid-color:#000000;solid-opacity:1;fill:#dddddd;fill-opacity:1;fill-rule:evenodd;stroke:none;stroke-width:6;stroke-linecap:butt;stroke-linejoin:round;stroke-miterlimit:4;stroke-dasharray:none;stroke-dashoffset:0;stroke-opacity:1;color-rendering:auto;image-rendering:auto;shape-rendering:auto;text-rendering:auto;enable-background:accumulate"
         id="circle5034"
         cx="378.25458"
         cy="466.70749"
         r="322.36694" />
      <g
         id="g5025"
         style="">
        <g
           id="g5003"
           transform="matrix(0.75113534,0,0,0.75113534,94.035292,111.09388)"
           style="fill:#4c4c4c;fill-opacity:1">
          <path
             inkscape:connector-curvature="0"
             id="path5001"
             d="M 377.85971,168.06997 A 308.48837,308.48837 0 0 0 69.369827,476.55986 308.48837,308.48837 0 0 0 377.85971,785.04462 308.48837,308.48837 0 0 0 686.34449,476.55986 308.48837,308.48837 0 0 0 377.85971,168.06997 Z m 0,75.44656 A 233.03962,233.03962 0 0 1 610.89795,476.55986 233.03962,233.03962 0 0 1 377.85971,709.59808 233.03962,233.03962 0 0 1 144.8164,476.55986 233.03962,233.03962 0 0 1 377.85971,243.51653 Z"
             style="color:#000000;clip-rule:nonzero;display:inline;overflow:visible;visibility:visible;opacity:1;isolation:auto;mix-blend-mode:normal;color-interpolation:sRGB;color-interpolation-filters:linearRGB;solid-color:#000000;solid-opacity:1;fill:#4c4c4c;fill-opacity:1;fill-rule:evenodd;stroke:none;stroke-width:6;stroke-linecap:butt;stroke-linejoin:round;stroke-miterlimit:4;stroke-dasharray:none;stroke-dashoffset:0;stroke-opacity:1;color-rendering:auto;image-rendering:auto;shape-rendering:auto;text-rendering:auto;enable-background:accumulate" />
        </g>
        <path
           style="color:#000000;clip-rule:nonzero;display:inline;overflow:visible;visibility:visible;opacity:1;isolation:auto;mix-blend-mode:normal;color-interpolation:sRGB;color-interpolation-filters:linearRGB;solid-color:#000000;solid-opacity:1;fill:#4c4c4c;fill-opacity:1;fill-rule:evenodd;stroke:none;stroke-width:6;stroke-linecap:butt;stroke-linejoin:round;stroke-miterlimit:4;stroke-dasharray:none;stroke-dashoffset:0;stroke-opacity:1;color-rendering:auto;image-rendering:auto;shape-rendering:auto;text-rendering:auto;enable-background:accumulate"
           d="m 368.41388,192.03698 c -8.68148,0 -15.67162,6.99012 -15.67162,15.67162 l 0,38.1544 c 0,8.68149 6.99014,15.66789 15.67162,15.66789 l 28.6158,0 c 8.6815,0 15.67163,-6.98641 15.67163,-15.66789 l 0,-38.1544 c 0,-8.6815 -6.99013,-15.67162 -15.67163,-15.67162 l -28.6158,0 z m 122.34,37.67746 c -5.55651,-0.0673 -10.96128,2.83916 -13.86823,8.05193 l -18.58164,33.32175 c -4.22829,7.58221 -1.52744,17.08824 6.05477,21.31654 l 24.9904,13.93902 c 7.5822,4.2283 17.09196,1.52743 21.32025,-6.05478 l 18.58166,-33.32175 c 4.22828,-7.58221 1.52741,-17.09197 -6.05479,-21.32026 l -24.99038,-13.9353 c -2.36945,-1.32134 -4.92635,-1.96655 -7.45204,-1.99715 z M 442.15546,368.0875 c -4.50136,0.193 -8.88485,2.33024 -11.84874,6.21126 l -45.517,59.59762 a 36.110415,36.110415 0 0 0 -6.83724,-0.67068 36.110415,36.110415 0 0 0 -36.11255,36.11255 36.110415,36.110415 0 0 0 36.11255,36.10881 36.110415,36.110415 0 0 0 36.10883,-36.10881 36.110415,36.110415 0 0 0 -4.12844,-16.72609 l 45.36796,-59.40386 c 5.26917,-6.8996 3.88307,-16.716 -3.04043,-21.9537 -3.02902,-2.2915 -6.60387,-3.31722 -10.10494,-3.1671 z"
           id="path4162-8"
           inkscape:connector-curvature="0" />
      </g>
    </g>
  </g>
</svg>
